<svg width="200" height="45" viewBox="0 0 200 45" fill="none" xmlns="http://www.w3.org/2000/svg">
	<g clip-path="url(#clip0_61_942)">
		<path d="M15.0011 27.5333V40.673H0V2.19775H15.0011V15.3375H37.5313V2.19775H52.5627V40.673H37.5313V27.5333H15.0011Z" fill="#374151" />
		<path d="M74.3424 2.19775H92.1792L112.818 40.673H95.9286L92.8957 34.088H73.6259L70.5931 40.673H53.7002L74.3424 2.19775ZM77.978 24.6976H88.5436L83.2741 13.3245L77.978 24.6976Z" fill="#374151" />
		<path d="M147.854 2.19775H162.886V22.8665C162.943 37.4089 151.035 41.5904 136.606 41.617C122.178 41.6435 110.266 37.4089 110.323 22.8665V2.19775H125.324V21.9111C125.267 28.2384 130.45 29.3264 136.606 29.4098C142.733 29.3264 147.941 28.2384 147.854 21.9111V2.19775Z" fill="#374151" />
		<path d="M131.992 44.8207C133.523 44.8207 134.764 43.4136 134.764 41.6779C134.764 39.9422 133.523 38.5352 131.992 38.5352C130.462 38.5352 129.221 39.9422 129.221 41.6779C129.221 43.4136 130.462 44.8207 131.992 44.8207Z" fill="#374151" />
		<path d="M124.971 44.8207C126.502 44.8207 127.743 43.4136 127.743 41.6779C127.743 39.9422 126.502 38.5352 124.971 38.5352C123.441 38.5352 122.2 39.9422 122.2 41.6779C122.2 43.4136 123.441 44.8207 124.971 44.8207Z" fill="#374151" />
		<path d="M148.237 44.703C149.768 44.703 151.008 43.296 151.008 41.5603C151.008 39.8245 149.768 38.4175 148.237 38.4175C146.707 38.4175 145.466 39.8245 145.466 41.5603C145.466 43.296 146.707 44.703 148.237 44.703Z" fill="#374151" />
		<path d="M141.216 44.703C142.747 44.703 143.987 43.296 143.987 41.5603C143.987 39.8245 142.747 38.4175 141.216 38.4175C139.686 38.4175 138.445 39.8245 138.445 41.5603C138.445 43.296 139.686 44.703 141.216 44.703Z" fill="#374151" />
		<path d="M187.054 18.4621V1.19775L159.322 2.39952V41.8263H200V19.6525L187.054 18.4621ZM183.562 19.3H167.689V7.21792L183.581 6.45972L183.562 19.3Z" fill="#374151" />
	</g>
	<defs>
		<clipPath id="clip0_61_942">
			<rect width="200" height="43.8396" fill="white" transform="translate(0 0.197754)" />
		</clipPath>
	</defs>
</svg>
